include "include/hUGE.inc"

SECTION "twinkle_little_star Song Data", ROMX

twinkle_little_star::
db 12
dw order_cnt
dw order1, order2, order3, order4
dw duty_instruments, wave_instruments, noise_instruments
dw routines
dw waves

order_cnt: db 6
order1: dw P0,P13,P17
order2: dw P8,P14,P18
order3: dw P2,P15,P19
order4: dw P3,P16,P20

P0:
 dn C_5,4,$000
 dn ___,0,$000
 dn ___,0,$E00
 dn C_5,4,$000
 dn ___,0,$000
 dn ___,0,$E00
 dn G_5,4,$000
 dn ___,0,$000
 dn ___,0,$E00
 dn G_5,4,$000
 dn ___,0,$000
 dn ___,0,$E00
 dn A_5,4,$000
 dn ___,0,$000
 dn ___,0,$E00
 dn A_5,4,$000
 dn ___,0,$000
 dn ___,0,$E00
 dn G_5,4,$000
 dn ___,0,$000
 dn ___,0,$000
 dn ___,0,$000
 dn ___,0,$000
 dn ___,0,$E00
 dn F_5,4,$000
 dn ___,0,$000
 dn ___,0,$E00
 dn F_5,4,$000
 dn ___,0,$000
 dn ___,0,$E00
 dn E_5,4,$000
 dn ___,0,$000
 dn ___,0,$E00
 dn E_5,4,$000
 dn ___,0,$000
 dn ___,0,$E00
 dn D_5,4,$000
 dn ___,0,$000
 dn ___,0,$E00
 dn D_5,4,$000
 dn ___,0,$000
 dn ___,0,$E00
 dn C_5,4,$000
 dn ___,0,$000
 dn ___,0,$000
 dn ___,0,$000
 dn ___,0,$000
 dn ___,0,$E00
 dn G_5,4,$000
 dn ___,0,$000
 dn ___,0,$E00
 dn G_5,4,$000
 dn ___,0,$000
 dn ___,0,$E00
 dn F_5,4,$000
 dn ___,0,$000
 dn ___,0,$E00
 dn F_5,4,$000
 dn ___,0,$000
 dn ___,0,$E00
 dn E_5,4,$000
 dn ___,0,$000
 dn ___,0,$E00
 dn E_5,4,$000

P2:
 dn ___,0,$000
 dn ___,0,$000
 dn ___,0,$000
 dn ___,0,$000
 dn ___,0,$000
 dn ___,0,$000
 dn ___,0,$000
 dn ___,0,$000
 dn ___,0,$000
 dn ___,0,$000
 dn ___,0,$000
 dn ___,0,$000
 dn ___,0,$000
 dn ___,0,$000
 dn ___,0,$000
 dn ___,0,$000
 dn ___,0,$000
 dn ___,0,$000
 dn ___,0,$000
 dn ___,0,$000
 dn ___,0,$000
 dn ___,0,$000
 dn ___,0,$000
 dn ___,0,$000
 dn ___,0,$000
 dn ___,0,$000
 dn ___,0,$000
 dn ___,0,$000
 dn ___,0,$000
 dn ___,0,$000
 dn ___,0,$000
 dn ___,0,$000
 dn ___,0,$000
 dn ___,0,$000
 dn ___,0,$000
 dn ___,0,$000
 dn ___,0,$000
 dn ___,0,$000
 dn ___,0,$000
 dn ___,0,$000
 dn ___,0,$000
 dn ___,0,$000
 dn ___,0,$000
 dn ___,0,$000
 dn ___,0,$000
 dn ___,0,$000
 dn ___,0,$000
 dn ___,0,$000
 dn ___,0,$000
 dn ___,0,$000
 dn ___,0,$000
 dn ___,0,$000
 dn ___,0,$000
 dn ___,0,$000
 dn ___,0,$000
 dn ___,0,$000
 dn ___,0,$000
 dn ___,0,$000
 dn ___,0,$000
 dn ___,0,$000
 dn ___,0,$000
 dn ___,0,$000
 dn ___,0,$000
 dn ___,0,$000

P3:
 dn ___,0,$000
 dn ___,0,$000
 dn ___,0,$000
 dn ___,0,$000
 dn ___,0,$000
 dn ___,0,$000
 dn ___,0,$000
 dn ___,0,$000
 dn ___,0,$000
 dn ___,0,$000
 dn ___,0,$000
 dn ___,0,$000
 dn ___,0,$000
 dn ___,0,$000
 dn ___,0,$000
 dn ___,0,$000
 dn ___,0,$000
 dn ___,0,$000
 dn ___,0,$000
 dn ___,0,$000
 dn ___,0,$000
 dn ___,0,$000
 dn ___,0,$000
 dn ___,0,$000
 dn ___,0,$000
 dn ___,0,$000
 dn ___,0,$000
 dn ___,0,$000
 dn ___,0,$000
 dn ___,0,$000
 dn ___,0,$000
 dn ___,0,$000
 dn ___,0,$000
 dn ___,0,$000
 dn ___,0,$000
 dn ___,0,$000
 dn ___,0,$000
 dn ___,0,$000
 dn ___,0,$000
 dn ___,0,$000
 dn ___,0,$000
 dn ___,0,$000
 dn ___,0,$000
 dn ___,0,$000
 dn ___,0,$000
 dn ___,0,$000
 dn ___,0,$000
 dn ___,0,$000
 dn ___,0,$000
 dn ___,0,$000
 dn ___,0,$000
 dn ___,0,$000
 dn ___,0,$000
 dn ___,0,$000
 dn ___,0,$000
 dn ___,0,$000
 dn ___,0,$000
 dn ___,0,$000
 dn ___,0,$000
 dn ___,0,$000
 dn ___,0,$000
 dn ___,0,$000
 dn ___,0,$000
 dn ___,0,$000

P8:
 dn C_4,4,$000
 dn ___,0,$000
 dn ___,0,$000
 dn ___,0,$000
 dn ___,0,$000
 dn ___,0,$000
 dn G_4,4,$000
 dn ___,0,$000
 dn ___,0,$000
 dn ___,0,$000
 dn ___,0,$000
 dn ___,0,$000
 dn A_4,4,$000
 dn ___,0,$000
 dn ___,0,$000
 dn ___,0,$000
 dn ___,0,$000
 dn ___,0,$000
 dn G_4,4,$000
 dn ___,0,$000
 dn ___,0,$000
 dn ___,0,$000
 dn ___,0,$000
 dn ___,0,$000
 dn F_4,4,$000
 dn ___,0,$000
 dn ___,0,$000
 dn ___,0,$000
 dn ___,0,$000
 dn ___,0,$000
 dn E_4,4,$000
 dn ___,0,$000
 dn ___,0,$000
 dn ___,0,$000
 dn ___,0,$000
 dn ___,0,$000
 dn D_4,4,$000
 dn ___,0,$000
 dn ___,0,$000
 dn ___,0,$000
 dn ___,0,$000
 dn ___,0,$000
 dn C_4,4,$000
 dn ___,0,$000
 dn ___,0,$000
 dn ___,0,$000
 dn ___,0,$000
 dn ___,0,$000
 dn G_4,4,$000
 dn ___,0,$000
 dn ___,0,$000
 dn ___,0,$000
 dn ___,0,$000
 dn ___,0,$000
 dn F_4,4,$000
 dn ___,0,$000
 dn ___,0,$000
 dn ___,0,$000
 dn ___,0,$000
 dn ___,0,$000
 dn E_4,4,$000
 dn ___,0,$000
 dn ___,0,$000
 dn ___,0,$000

P13:
 dn ___,0,$000
 dn ___,0,$E00
 dn D_5,4,$000
 dn ___,0,$000
 dn ___,0,$000
 dn ___,0,$000
 dn ___,0,$000
 dn ___,0,$E00
 dn G_5,4,$000
 dn ___,0,$000
 dn ___,0,$E00
 dn G_5,4,$000
 dn ___,0,$000
 dn ___,0,$E00
 dn F_5,4,$000
 dn ___,0,$000
 dn ___,0,$E00
 dn F_5,4,$000
 dn ___,0,$000
 dn ___,0,$E00
 dn E_5,4,$000
 dn ___,0,$000
 dn ___,0,$E00
 dn E_5,4,$000
 dn ___,0,$000
 dn ___,0,$E00
 dn D_5,4,$000
 dn ___,0,$000
 dn ___,0,$000
 dn ___,0,$000
 dn ___,0,$000
 dn ___,0,$E00
 dn C_5,4,$000
 dn ___,0,$000
 dn ___,0,$E00
 dn C_5,4,$000
 dn ___,0,$000
 dn ___,0,$E00
 dn G_5,4,$000
 dn ___,0,$000
 dn ___,0,$E00
 dn G_5,4,$000
 dn ___,0,$000
 dn ___,0,$E00
 dn A_5,4,$000
 dn ___,0,$000
 dn ___,0,$E00
 dn A_5,4,$000
 dn ___,0,$000
 dn ___,0,$E00
 dn G_5,4,$000
 dn ___,0,$000
 dn ___,0,$000
 dn ___,0,$000
 dn ___,0,$000
 dn ___,0,$E00
 dn F_5,4,$000
 dn ___,0,$000
 dn ___,0,$E00
 dn F_5,4,$000
 dn ___,0,$000
 dn ___,0,$E00
 dn E_5,4,$000
 dn ___,0,$000

P14:
 dn ___,0,$000
 dn ___,0,$000
 dn D_4,4,$000
 dn ___,0,$000
 dn ___,0,$000
 dn ___,0,$000
 dn ___,0,$000
 dn ___,0,$000
 dn G_4,4,$000
 dn ___,0,$000
 dn ___,0,$000
 dn ___,0,$000
 dn ___,0,$000
 dn ___,0,$000
 dn F_4,4,$000
 dn ___,0,$000
 dn ___,0,$000
 dn ___,0,$000
 dn ___,0,$000
 dn ___,0,$000
 dn E_4,4,$000
 dn ___,0,$000
 dn ___,0,$000
 dn ___,0,$000
 dn ___,0,$000
 dn ___,0,$000
 dn D_4,4,$000
 dn ___,0,$000
 dn ___,0,$000
 dn ___,0,$000
 dn ___,0,$000
 dn ___,0,$000
 dn C_4,4,$000
 dn ___,0,$000
 dn ___,0,$000
 dn ___,0,$000
 dn ___,0,$000
 dn ___,0,$000
 dn G_4,4,$000
 dn ___,0,$000
 dn ___,0,$000
 dn ___,0,$000
 dn ___,0,$000
 dn ___,0,$000
 dn A_4,4,$000
 dn ___,0,$000
 dn ___,0,$000
 dn ___,0,$000
 dn ___,0,$000
 dn ___,0,$000
 dn G_4,4,$000
 dn ___,0,$000
 dn ___,0,$000
 dn ___,0,$000
 dn ___,0,$000
 dn ___,0,$000
 dn F_4,4,$000
 dn ___,0,$000
 dn ___,0,$000
 dn ___,0,$000
 dn ___,0,$000
 dn ___,0,$000
 dn E_4,4,$000
 dn ___,0,$000

P15:
 dn ___,0,$000
 dn ___,0,$000
 dn ___,0,$000
 dn ___,0,$000
 dn ___,0,$000
 dn ___,0,$000
 dn ___,0,$000
 dn ___,0,$000
 dn ___,0,$000
 dn ___,0,$000
 dn ___,0,$000
 dn ___,0,$000
 dn ___,0,$000
 dn ___,0,$000
 dn ___,0,$000
 dn ___,0,$000
 dn ___,0,$000
 dn ___,0,$000
 dn ___,0,$000
 dn ___,0,$000
 dn ___,0,$000
 dn ___,0,$000
 dn ___,0,$000
 dn ___,0,$000
 dn ___,0,$000
 dn ___,0,$000
 dn ___,0,$000
 dn ___,0,$000
 dn ___,0,$000
 dn ___,0,$000
 dn ___,0,$000
 dn ___,0,$000
 dn ___,0,$000
 dn ___,0,$000
 dn ___,0,$000
 dn ___,0,$000
 dn ___,0,$000
 dn ___,0,$000
 dn ___,0,$000
 dn ___,0,$000
 dn ___,0,$000
 dn ___,0,$000
 dn ___,0,$000
 dn ___,0,$000
 dn ___,0,$000
 dn ___,0,$000
 dn ___,0,$000
 dn ___,0,$000
 dn ___,0,$000
 dn ___,0,$000
 dn ___,0,$000
 dn ___,0,$000
 dn ___,0,$000
 dn ___,0,$000
 dn ___,0,$000
 dn ___,0,$000
 dn ___,0,$000
 dn ___,0,$000
 dn ___,0,$000
 dn ___,0,$000
 dn ___,0,$000
 dn ___,0,$000
 dn ___,0,$000
 dn ___,0,$000

P16:
 dn ___,0,$000
 dn ___,0,$000
 dn ___,0,$000
 dn ___,0,$000
 dn ___,0,$000
 dn ___,0,$000
 dn ___,0,$000
 dn ___,0,$000
 dn ___,0,$000
 dn ___,0,$000
 dn ___,0,$000
 dn ___,0,$000
 dn ___,0,$000
 dn ___,0,$000
 dn ___,0,$000
 dn ___,0,$000
 dn ___,0,$000
 dn ___,0,$000
 dn ___,0,$000
 dn ___,0,$000
 dn ___,0,$000
 dn ___,0,$000
 dn ___,0,$000
 dn ___,0,$000
 dn ___,0,$000
 dn ___,0,$000
 dn ___,0,$000
 dn ___,0,$000
 dn ___,0,$000
 dn ___,0,$000
 dn ___,0,$000
 dn ___,0,$000
 dn ___,0,$000
 dn ___,0,$000
 dn ___,0,$000
 dn ___,0,$000
 dn ___,0,$000
 dn ___,0,$000
 dn ___,0,$000
 dn ___,0,$000
 dn ___,0,$000
 dn ___,0,$000
 dn ___,0,$000
 dn ___,0,$000
 dn ___,0,$000
 dn ___,0,$000
 dn ___,0,$000
 dn ___,0,$000
 dn ___,0,$000
 dn ___,0,$000
 dn ___,0,$000
 dn ___,0,$000
 dn ___,0,$000
 dn ___,0,$000
 dn ___,0,$000
 dn ___,0,$000
 dn ___,0,$000
 dn ___,0,$000
 dn ___,0,$000
 dn ___,0,$000
 dn ___,0,$000
 dn ___,0,$000
 dn ___,0,$000
 dn ___,0,$000

P17:
 dn ___,0,$E00
 dn E_5,4,$000
 dn ___,0,$000
 dn ___,0,$E00
 dn D_5,4,$000
 dn ___,0,$000
 dn ___,0,$E00
 dn D_5,4,$000
 dn ___,0,$000
 dn ___,0,$E00
 dn C_5,4,$000
 dn ___,0,$000
 dn ___,0,$000
 dn ___,0,$000
 dn ___,0,$A02
 dn ___,0,$A02
 dn ___,0,$A02
 dn ___,0,$A02
 dn ___,0,$A02
 dn ___,0,$A02
 dn ___,0,$A02
 dn ___,0,$A02
 dn ___,0,$E00
 dn ___,0,$000
 dn ___,0,$000
 dn ___,0,$000
 dn ___,0,$000
 dn ___,0,$000
 dn ___,0,$000
 dn ___,0,$000
 dn ___,0,$000
 dn ___,0,$000
 dn ___,0,$000
 dn ___,0,$000
 dn ___,0,$000
 dn ___,0,$000
 dn ___,0,$000
 dn ___,0,$000
 dn ___,0,$000
 dn ___,0,$000
 dn ___,0,$000
 dn ___,0,$000
 dn ___,0,$000
 dn ___,0,$000
 dn ___,0,$000
 dn ___,0,$000
 dn ___,0,$000
 dn ___,0,$000
 dn ___,0,$000
 dn ___,0,$000
 dn ___,0,$000
 dn ___,0,$000
 dn ___,0,$000
 dn ___,0,$000
 dn ___,0,$000
 dn ___,0,$000
 dn ___,0,$000
 dn ___,0,$000
 dn ___,0,$000
 dn ___,0,$000
 dn ___,0,$000
 dn ___,0,$000
 dn ___,0,$000
 dn ___,0,$000

P18:
 dn ___,0,$000
 dn ___,0,$000
 dn ___,0,$000
 dn ___,0,$000
 dn D_4,4,$000
 dn ___,0,$000
 dn ___,0,$000
 dn ___,0,$000
 dn ___,0,$000
 dn ___,0,$000
 dn C_4,4,$000
 dn ___,0,$000
 dn ___,0,$000
 dn ___,0,$000
 dn ___,0,$A02
 dn ___,0,$A02
 dn ___,0,$A02
 dn ___,0,$A02
 dn ___,0,$A02
 dn ___,0,$A02
 dn ___,0,$A02
 dn ___,0,$A02
 dn ___,0,$E00
 dn ___,0,$000
 dn ___,0,$000
 dn ___,0,$000
 dn ___,0,$000
 dn ___,0,$000
 dn ___,0,$000
 dn ___,0,$000
 dn ___,0,$000
 dn ___,0,$000
 dn ___,0,$000
 dn ___,0,$000
 dn ___,0,$000
 dn ___,0,$000
 dn ___,0,$000
 dn ___,0,$000
 dn ___,0,$000
 dn ___,0,$000
 dn ___,0,$000
 dn ___,0,$000
 dn ___,0,$000
 dn ___,0,$000
 dn ___,0,$000
 dn ___,0,$000
 dn ___,0,$000
 dn ___,0,$000
 dn ___,0,$000
 dn ___,0,$000
 dn ___,0,$000
 dn ___,0,$000
 dn ___,0,$000
 dn ___,0,$000
 dn ___,0,$000
 dn ___,0,$000
 dn ___,0,$000
 dn ___,0,$000
 dn ___,0,$000
 dn ___,0,$000
 dn ___,0,$000
 dn ___,0,$000
 dn ___,0,$000
 dn ___,0,$000

P19:
 dn ___,0,$000
 dn ___,0,$000
 dn ___,0,$000
 dn ___,0,$000
 dn ___,0,$000
 dn ___,0,$000
 dn ___,0,$000
 dn ___,0,$000
 dn ___,0,$000
 dn ___,0,$000
 dn ___,0,$000
 dn ___,0,$000
 dn ___,0,$000
 dn ___,0,$000
 dn ___,0,$000
 dn ___,0,$000
 dn ___,0,$000
 dn ___,0,$000
 dn ___,0,$000
 dn ___,0,$000
 dn ___,0,$000
 dn ___,0,$000
 dn ___,0,$000
 dn ___,0,$000
 dn ___,0,$000
 dn ___,0,$000
 dn ___,0,$000
 dn ___,0,$000
 dn ___,0,$000
 dn ___,0,$000
 dn ___,0,$000
 dn ___,0,$000
 dn ___,0,$000
 dn ___,0,$000
 dn ___,0,$000
 dn ___,0,$000
 dn ___,0,$000
 dn ___,0,$000
 dn ___,0,$000
 dn ___,0,$000
 dn ___,0,$000
 dn ___,0,$000
 dn ___,0,$000
 dn ___,0,$000
 dn ___,0,$000
 dn ___,0,$000
 dn ___,0,$000
 dn ___,0,$000
 dn ___,0,$000
 dn ___,0,$000
 dn ___,0,$000
 dn ___,0,$000
 dn ___,0,$000
 dn ___,0,$000
 dn ___,0,$000
 dn ___,0,$000
 dn ___,0,$000
 dn ___,0,$000
 dn ___,0,$000
 dn ___,0,$000
 dn ___,0,$000
 dn ___,0,$000
 dn ___,0,$000
 dn ___,0,$000

P20:
 dn ___,0,$000
 dn ___,0,$000
 dn ___,0,$000
 dn ___,0,$000
 dn ___,0,$000
 dn ___,0,$000
 dn ___,0,$000
 dn ___,0,$000
 dn ___,0,$000
 dn ___,0,$000
 dn ___,0,$000
 dn ___,0,$000
 dn ___,0,$000
 dn ___,0,$000
 dn ___,0,$000
 dn ___,0,$000
 dn ___,0,$000
 dn ___,0,$000
 dn ___,0,$000
 dn ___,0,$000
 dn ___,0,$000
 dn ___,0,$000
 dn ___,0,$000
 dn ___,0,$000
 dn ___,0,$000
 dn ___,0,$000
 dn ___,0,$000
 dn ___,0,$000
 dn ___,0,$000
 dn ___,0,$000
 dn ___,0,$000
 dn ___,0,$000
 dn ___,0,$000
 dn ___,0,$000
 dn ___,0,$000
 dn ___,0,$000
 dn ___,0,$000
 dn ___,0,$000
 dn ___,0,$000
 dn ___,0,$000
 dn ___,0,$000
 dn ___,0,$000
 dn ___,0,$000
 dn ___,0,$000
 dn ___,0,$000
 dn ___,0,$000
 dn ___,0,$000
 dn ___,0,$000
 dn ___,0,$000
 dn ___,0,$000
 dn ___,0,$000
 dn ___,0,$000
 dn ___,0,$000
 dn ___,0,$000
 dn ___,0,$000
 dn ___,0,$000
 dn ___,0,$000
 dn ___,0,$000
 dn ___,0,$000
 dn ___,0,$000
 dn ___,0,$000
 dn ___,0,$000
 dn ___,0,$000
 dn ___,0,$000

duty_instruments:
itSquareinst1:
db 8
db 0
db 240
dw 0
db 128

itSquareinst2:
db 8
db 64
db 240
dw 0
db 128

itSquareinst3:
db 8
db 128
db 240
dw 0
db 128

itSquareinst4:
db 8
db 192
db 240
dw 0
db 128

itSquareinst5:
db 8
db 0
db 241
dw 0
db 128

itSquareinst6:
db 8
db 64
db 241
dw 0
db 128

itSquareinst7:
db 8
db 128
db 241
dw 0
db 128

itSquareinst8:
db 8
db 192
db 241
dw 0
db 128

itSquareinst9:
db 8
db 128
db 240
dw 0
db 128

itSquareinst10:
db 8
db 128
db 240
dw 0
db 128

itSquareinst11:
db 8
db 128
db 240
dw 0
db 128

itSquareinst12:
db 8
db 128
db 240
dw 0
db 128

itSquareinst13:
db 8
db 128
db 240
dw 0
db 128

itSquareinst14:
db 8
db 128
db 240
dw 0
db 128

itSquareinst15:
db 8
db 128
db 240
dw 0
db 128



wave_instruments:
itWaveinst1:
db 0
db 32
db 0
dw 0
db 128

itWaveinst2:
db 0
db 32
db 1
dw 0
db 128

itWaveinst3:
db 0
db 32
db 2
dw 0
db 128

itWaveinst4:
db 0
db 32
db 3
dw 0
db 128

itWaveinst5:
db 0
db 32
db 4
dw 0
db 128

itWaveinst6:
db 0
db 32
db 5
dw 0
db 128

itWaveinst7:
db 0
db 32
db 6
dw 0
db 128

itWaveinst8:
db 0
db 32
db 7
dw 0
db 128

itWaveinst9:
db 0
db 32
db 8
dw 0
db 128

itWaveinst10:
db 0
db 32
db 9
dw 0
db 128

itWaveinst11:
db 0
db 32
db 10
dw 0
db 128

itWaveinst12:
db 0
db 32
db 11
dw 0
db 128

itWaveinst13:
db 0
db 32
db 12
dw 0
db 128

itWaveinst14:
db 0
db 32
db 13
dw 0
db 128

itWaveinst15:
db 0
db 32
db 14
dw 0
db 128



noise_instruments:
itNoiseinst1:
db 240
dw 0
db 0
ds 2

itNoiseinst2:
db 240
dw 0
db 0
ds 2

itNoiseinst3:
db 240
dw 0
db 0
ds 2

itNoiseinst4:
db 240
dw 0
db 0
ds 2

itNoiseinst5:
db 240
dw 0
db 0
ds 2

itNoiseinst6:
db 240
dw 0
db 0
ds 2

itNoiseinst7:
db 240
dw 0
db 0
ds 2

itNoiseinst8:
db 240
dw 0
db 0
ds 2

itNoiseinst9:
db 240
dw 0
db 0
ds 2

itNoiseinst10:
db 240
dw 0
db 0
ds 2

itNoiseinst11:
db 240
dw 0
db 0
ds 2

itNoiseinst12:
db 240
dw 0
db 0
ds 2

itNoiseinst13:
db 240
dw 0
db 0
ds 2

itNoiseinst14:
db 240
dw 0
db 0
ds 2

itNoiseinst15:
db 240
dw 0
db 0
ds 2



routines:
__hUGE_Routine_0:

__end_hUGE_Routine_0:
ret

__hUGE_Routine_1:

__end_hUGE_Routine_1:
ret

__hUGE_Routine_2:

__end_hUGE_Routine_2:
ret

__hUGE_Routine_3:

__end_hUGE_Routine_3:
ret

__hUGE_Routine_4:

__end_hUGE_Routine_4:
ret

__hUGE_Routine_5:

__end_hUGE_Routine_5:
ret

__hUGE_Routine_6:

__end_hUGE_Routine_6:
ret

__hUGE_Routine_7:

__end_hUGE_Routine_7:
ret

__hUGE_Routine_8:

__end_hUGE_Routine_8:
ret

__hUGE_Routine_9:

__end_hUGE_Routine_9:
ret

__hUGE_Routine_10:

__end_hUGE_Routine_10:
ret

__hUGE_Routine_11:

__end_hUGE_Routine_11:
ret

__hUGE_Routine_12:

__end_hUGE_Routine_12:
ret

__hUGE_Routine_13:

__end_hUGE_Routine_13:
ret

__hUGE_Routine_14:

__end_hUGE_Routine_14:
ret

__hUGE_Routine_15:

__end_hUGE_Routine_15:
ret

waves:
wave0: db 0,46,238,238,238,238,255,255,255,255,255,255,255,255,255,255
wave1: db 0,0,0,0,255,255,255,255,255,255,255,255,255,255,255,255
wave2: db 0,0,0,0,0,0,0,0,255,255,255,255,255,255,255,255
wave3: db 0,0,0,0,0,0,0,0,0,0,0,0,255,255,255,255
wave4: db 0,1,18,35,52,69,86,103,120,137,154,171,188,205,222,239
wave5: db 254,220,186,152,118,84,50,16,18,52,86,120,154,188,222,255
wave6: db 122,205,219,117,33,19,104,189,220,151,65,1,71,156,221,184
wave7: db 15,15,15,15,15,15,15,15,15,15,15,15,15,15,15,15
wave8: db 254,252,250,248,246,244,242,240,242,244,246,248,250,252,254,255
wave9: db 254,221,204,187,170,153,136,119,138,189,241,36,87,138,189,238
wave10: db 132,17,97,237,87,71,90,173,206,163,23,121,221,32,3,71
wave11: db 57,216,114,42,234,222,100,50,40,210,167,158,219,58,11,92
wave12: db 93,64,195,36,238,210,185,180,37,201,126,165,198,43,144,74
wave13: db 227,25,152,118,186,27,166,29,86,28,40,21,25,217,224,0
wave14: db 32,113,103,91,142,35,87,21,235,125,102,22,156,39,30,226
wave15: db 80,107,212,237,81,17,217,17,221,100,4,118,214,27,221,46

